<svg xmlns="http://www.w3.org/2000/svg" width="512" height="512" viewBox="0 0 512 512">
  <defs>
    <linearGradient id="gGreen" x1="0" y1="0" x2="1" y2="1">
      <stop offset="0%" stop-color="#69DB63"/>
      <stop offset="100%" stop-color="#16C172"/>
    </linearGradient>
    <linearGradient id="gLight" x1="0" y1="0" x2="1" y2="1">
      <stop offset="0%" stop-color="#F3F5F7"/>
      <stop offset="100%" stop-color="#D6DCE2"/>
    </linearGradient>
  </defs>

  <!-- top left -->
  <rect x="44" y="44" width="172" height="172" rx="38" fill="url(#gGreen)"/>

  <!-- top right -->
  <g>
    <rect x="248" y="44" width="172" height="172" rx="38" fill="url(#gLight)"/>
    <!-- navy chevron -->
    <path d="M273 196 L334 135 Q341 128 348 135 L409 196 L383 196 L341 154 Q337 150 333 154 L299 188 Q294 193 289 196 Z" fill="#0B2D4B"/>
  </g>

  <!-- bottom left -->
  <g>
    <rect x="44" y="248" width="172" height="172" rx="38" fill="url(#gLight)"/>
    <rect x="137" y="312" width="92" height="44" rx="20" fill="white"/>
  </g>

  <!-- bottom right -->
  <path d="M248 248 L340 248 C 387 248 420 281 420 328 L420 420 L316 420 C 277 420 248 391 248 352 Z"
        fill="url(#gGreen)"/>
</svg>